# xmcd
#
# Track frame offsets: 
#        150
#        21590
#        35530
#        49685
#        64538
#        79253
#        97895
#        110233
#        125783
#        147543
#        166473
#
# Disc length: 2484 seconds
#
# Revision: 1
# Processed by: cddbd v1.5.2PL0 Copyright (c) Steve Scherf et al.
# Submitted via: ExactAudioCopy v1.0b1
#
DISCID=a009b20b
DTITLE=De Dijk - De jonge jaren van De Dijk - CD 2
DYEAR=2008
DGENRE=Pop
TTITLE0=Binnen zonder kloppen
TTITLE1=Nergens zonder haar
TTITLE2=Elke dag een nieuwe hoed
TTITLE3=Groot hart
TTITLE4=Je zou me eens moeten zien
TTITLE5=Nooit meer terug
TTITLE6=Elke keer
TTITLE7=Cowboy met de witte hoed
TTITLE8=Veel nacht en weinig maan
TTITLE9=Wat nog meer
TTITLE10=Dit bittere eind
EXTD=
EXTT0=
EXTT1=
EXTT2=
EXTT3=
EXTT4=
EXTT5=
EXTT6=
EXTT7=
EXTT8=
EXTT9=
EXTT10=
PLAYORDER=
